<svg width="80" height="18" viewBox="0 0 80 18" fill="none" xmlns="http://www.w3.org/2000/svg">
<path d="M11.3047 6.11921C36.456 24.1537 46.7533 -11.3397 63.3828 9.63453C45.333 -4.87607 33.7338 30.3339 11.3047 6.11921Z" fill="#007AD2"/>
<path d="M17.8164 6.33284C36.8546 13.9332 40.5317 -7.61668 59.2733 3.0042C43.0227 -6.20504 33.474 16.929 17.8164 6.33284Z" fill="#74CCEC"/>
<path d="M20.7285 15.1605C39.7667 22.7609 43.4438 1.21096 62.1854 11.8318C45.9348 2.62259 36.3861 25.7566 20.7285 15.1605Z" fill="#74CCEC"/>
<path d="M0 6.33284C19.0382 13.9332 22.7153 -7.61668 41.4569 3.0042C25.2063 -6.20504 15.6575 16.929 0 6.33284Z" fill="#007AD2"/>
<path d="M38.543 15.1605C57.5811 22.7609 61.2583 1.21096 79.9999 11.8318C63.7492 2.62259 54.2005 25.7566 38.543 15.1605Z" fill="#007AD2"/>
</svg>
